<svg aria-roledescription="er" role="graphics-document document" viewBox="0 0 443 620" style="max-width: 100%;" xmlns="http://www.w3.org/2000/svg" width="100%" id="graph-div" height="100%" xmlns:xlink="http://www.w3.org/1999/xlink"><style>@import url("https://cdnjs.cloudflare.com/ajax/libs/font-awesome/6.4.0/css/all.min.css");'</style><style>#graph-div{font-family:"trebuchet ms",verdana,arial,sans-serif;font-size:16px;fill:#ccc;}#graph-div .error-icon{fill:#a44141;}#graph-div .error-text{fill:#ddd;stroke:#ddd;}#graph-div .edge-thickness-normal{stroke-width:2px;}#graph-div .edge-thickness-thick{stroke-width:3.5px;}#graph-div .edge-pattern-solid{stroke-dasharray:0;}#graph-div .edge-pattern-dashed{stroke-dasharray:3;}#graph-div .edge-pattern-dotted{stroke-dasharray:2;}#graph-div .marker{fill:lightgrey;stroke:lightgrey;}#graph-div .marker.cross{stroke:lightgrey;}#graph-div svg{font-family:"trebuchet ms",verdana,arial,sans-serif;font-size:16px;}#graph-div .entityBox{fill:#1f2020;stroke:#81B1DB;}#graph-div .attributeBoxOdd{fill:hsl(0, 0%, 32%);stroke:#81B1DB;}#graph-div .attributeBoxEven{fill:hsl(0, 0%, 22%);stroke:#81B1DB;}#graph-div .relationshipLabelBox{fill:hsl(20, 1.5873015873%, 12.3529411765%);opacity:0.7;background-color:hsl(20, 1.5873015873%, 12.3529411765%);}#graph-div .relationshipLabelBox rect{opacity:0.5;}#graph-div .relationshipLine{stroke:lightgrey;}#graph-div .entityTitleText{text-anchor:middle;font-size:18px;fill:#ccc;}#graph-div #MD_PARENT_START{fill:#f5f5f5!important;stroke:lightgrey!important;stroke-width:1;}#graph-div #MD_PARENT_END{fill:#f5f5f5!important;stroke:lightgrey!important;stroke-width:1;}#graph-div :root{--mermaid-font-family:"trebuchet ms",verdana,arial,sans-serif;}</style><g></g><defs><marker orient="auto" markerHeight="240" markerWidth="190" refY="7" refX="0" id="MD_PARENT_START"><path d="M 18,7 L9,13 L1,7 L9,1 Z"></path></marker></defs><defs><marker orient="auto" markerHeight="28" markerWidth="20" refY="7" refX="19" id="MD_PARENT_END"><path d="M 18,7 L9,13 L1,7 L9,1 Z"></path></marker></defs><defs><marker orient="auto" markerHeight="18" markerWidth="18" refY="9" refX="0" id="ONLY_ONE_START"><path d="M9,0 L9,18 M15,0 L15,18" fill="none" stroke="gray"></path></marker></defs><defs><marker orient="auto" markerHeight="18" markerWidth="18" refY="9" refX="18" id="ONLY_ONE_END"><path d="M3,0 L3,18 M9,0 L9,18" fill="none" stroke="gray"></path></marker></defs><defs><marker orient="auto" markerHeight="18" markerWidth="30" refY="9" refX="0" id="ZERO_OR_ONE_START"><circle r="6" cy="9" cx="21" fill="white" stroke="gray"></circle><path d="M9,0 L9,18" fill="none" stroke="gray"></path></marker></defs><defs><marker orient="auto" markerHeight="18" markerWidth="30" refY="9" refX="30" id="ZERO_OR_ONE_END"><circle r="6" cy="9" cx="9" fill="white" stroke="gray"></circle><path d="M21,0 L21,18" fill="none" stroke="gray"></path></marker></defs><defs><marker orient="auto" markerHeight="36" markerWidth="45" refY="18" refX="18" id="ONE_OR_MORE_START"><path d="M0,18 Q 18,0 36,18 Q 18,36 0,18 M42,9 L42,27" fill="none" stroke="gray"></path></marker></defs><defs><marker orient="auto" markerHeight="36" markerWidth="45" refY="18" refX="27" id="ONE_OR_MORE_END"><path d="M3,9 L3,27 M9,18 Q27,0 45,18 Q27,36 9,18" fill="none" stroke="gray"></path></marker></defs><defs><marker orient="auto" markerHeight="36" markerWidth="57" refY="18" refX="18" id="ZERO_OR_MORE_START"><circle r="6" cy="18" cx="48" fill="white" stroke="gray"></circle><path d="M0,18 Q18,0 36,18 Q18,36 0,18" fill="none" stroke="gray"></path></marker></defs><defs><marker orient="auto" markerHeight="36" markerWidth="57" refY="18" refX="39" id="ZERO_OR_MORE_END"><circle r="6" cy="18" cx="9" fill="white" stroke="gray"></circle><path d="M21,18 Q39,0 57,18 Q39,36 21,18" fill="none" stroke="gray"></path></marker></defs><path marker-start="url(#ONLY_ONE_START)" marker-end="url(#ONE_OR_MORE_END)" style="stroke: gray; fill: none;" d="M99,300L99,308.3333333333333C99,316.6666666666667,99,333.3333333333333,105.98611111111113,350C112.97222222222223,366.6666666666667,126.94444444444446,383.3333333333333,133.93055555555557,391.6666666666667L140.91666666666669,400" class="er relationshipLine"></path><path marker-start="url(#ONE_OR_MORE_START)" marker-end="url(#ONLY_ONE_END)" style="stroke: gray; fill: none;" d="M350.5,278L350.5,290C350.5,302,350.5,326,343.5138888888889,346.3333333333333C336.52777777777777,366.6666666666667,322.55555555555554,383.3333333333333,315.5694444444444,391.6666666666667L308.5833333333333,400" class="er relationshipLine"></path><path marker-start="url(#ONLY_ONE_START)" marker-end="url(#ZERO_OR_MORE_END)" style="stroke: gray; fill: none;" d="M350.5,88L350.5,96.33333333333333C350.5,104.66666666666667,350.5,121.33333333333333,350.5,141.66666666666666C350.5,162,350.5,186,350.5,198L350.5,210" class="er relationshipLine"></path><g transform="translate(20,188 )" id="entity-AUTHOR-c8b9204d-0c02-5422-8f8d-d29ca9ffce24"><rect height="112" width="158" y="0" x="0" class="er entityBox"></rect><text transform="translate(79,12)" style="dominant-baseline: middle; text-anchor: middle; font-size: 12px;" y="0" x="0" id="text-entity-AUTHOR-c8b9204d-0c02-5422-8f8d-d29ca9ffce24" class="er entityLabel">AUTHOR</text><rect height="22" width="60" y="24" x="0" class="er attributeBoxOdd"></rect><text transform="translate(5,35)" style="dominant-baseline: middle; font-size: 10.2px;" y="0" x="0" id="text-entity-AUTHOR-c8b9204d-0c02-5422-8f8d-d29ca9ffce24-attr-1-type" class="er entityLabel">serial</text><rect height="22" width="61" y="24" x="60" class="er attributeBoxOdd"></rect><text transform="translate(65,35)" style="dominant-baseline: middle; font-size: 10.2px;" y="0" x="0" id="text-entity-AUTHOR-c8b9204d-0c02-5422-8f8d-d29ca9ffce24-attr-1-name" class="er entityLabel">author_id</text><rect height="22" width="37" y="24" x="121" class="er attributeBoxOdd"></rect><text transform="translate(126,35)" style="dominant-baseline: middle; font-size: 10.2px;" y="0" x="0" id="text-entity-AUTHOR-c8b9204d-0c02-5422-8f8d-d29ca9ffce24-attr-1-key" class="er entityLabel">pk,fk</text><rect height="22" width="60" y="46" x="0" class="er attributeBoxEven"></rect><text transform="translate(5,57)" style="dominant-baseline: middle; font-size: 10.2px;" y="0" x="0" id="text-entity-AUTHOR-c8b9204d-0c02-5422-8f8d-d29ca9ffce24-attr-2-type" class="er entityLabel">timestamp</text><rect height="22" width="61" y="46" x="60" class="er attributeBoxEven"></rect><text transform="translate(65,57)" style="dominant-baseline: middle; font-size: 10.2px;" y="0" x="0" id="text-entity-AUTHOR-c8b9204d-0c02-5422-8f8d-d29ca9ffce24-attr-2-name" class="er entityLabel">created_ts</text><rect height="22" width="37" y="46" x="121" class="er attributeBoxEven"></rect><text transform="translate(126,57)" style="dominant-baseline: middle; font-size: 10.2px;" y="0" x="0" id="text-entity-AUTHOR-c8b9204d-0c02-5422-8f8d-d29ca9ffce24-attr-2-key" class="er entityLabel"></text><rect height="22" width="60" y="68" x="0" class="er attributeBoxOdd"></rect><text transform="translate(5,79)" style="dominant-baseline: middle; font-size: 10.2px;" y="0" x="0" id="text-entity-AUTHOR-c8b9204d-0c02-5422-8f8d-d29ca9ffce24-attr-3-type" class="er entityLabel">text</text><rect height="22" width="61" y="68" x="60" class="er attributeBoxOdd"></rect><text transform="translate(65,79)" style="dominant-baseline: middle; font-size: 10.2px;" y="0" x="0" id="text-entity-AUTHOR-c8b9204d-0c02-5422-8f8d-d29ca9ffce24-attr-3-name" class="er entityLabel">first_name</text><rect height="22" width="37" y="68" x="121" class="er attributeBoxOdd"></rect><text transform="translate(126,79)" style="dominant-baseline: middle; font-size: 10.2px;" y="0" x="0" id="text-entity-AUTHOR-c8b9204d-0c02-5422-8f8d-d29ca9ffce24-attr-3-key" class="er entityLabel"></text><rect height="22" width="60" y="90" x="0" class="er attributeBoxEven"></rect><text transform="translate(5,101)" style="dominant-baseline: middle; font-size: 10.2px;" y="0" x="0" id="text-entity-AUTHOR-c8b9204d-0c02-5422-8f8d-d29ca9ffce24-attr-4-type" class="er entityLabel">text</text><rect height="22" width="61" y="90" x="60" class="er attributeBoxEven"></rect><text transform="translate(65,101)" style="dominant-baseline: middle; font-size: 10.2px;" y="0" x="0" id="text-entity-AUTHOR-c8b9204d-0c02-5422-8f8d-d29ca9ffce24-attr-4-name" class="er entityLabel">last_name</text><rect height="22" width="37" y="90" x="121" class="er attributeBoxEven"></rect><text transform="translate(126,101)" style="dominant-baseline: middle; font-size: 10.2px;" y="0" x="0" id="text-entity-AUTHOR-c8b9204d-0c02-5422-8f8d-d29ca9ffce24-attr-4-key" class="er entityLabel"></text></g><g transform="translate(113.25,400 )" id="entity-BOOK-12b90bf2-7af7-5ded-a124-d6647c4b972e"><rect height="200" width="223" y="0" x="0" class="er entityBox"></rect><text transform="translate(111.5,12)" style="dominant-baseline: middle; text-anchor: middle; font-size: 12px;" y="0" x="0" id="text-entity-BOOK-12b90bf2-7af7-5ded-a124-d6647c4b972e" class="er entityLabel">BOOK</text><rect height="22" width="60" y="24" x="0" class="er attributeBoxOdd"></rect><text transform="translate(5,35)" style="dominant-baseline: middle; font-size: 10.2px;" y="0" x="0" id="text-entity-BOOK-12b90bf2-7af7-5ded-a124-d6647c4b972e-attr-1-type" class="er entityLabel">serial</text><rect height="22" width="69" y="24" x="60" class="er attributeBoxOdd"></rect><text transform="translate(65,35)" style="dominant-baseline: middle; font-size: 10.2px;" y="0" x="0" id="text-entity-BOOK-12b90bf2-7af7-5ded-a124-d6647c4b972e-attr-1-name" class="er entityLabel">book_id</text><rect height="22" width="37" y="24" x="129" class="er attributeBoxOdd"></rect><text transform="translate(134,35)" style="dominant-baseline: middle; font-size: 10.2px;" y="0" x="0" id="text-entity-BOOK-12b90bf2-7af7-5ded-a124-d6647c4b972e-attr-1-key" class="er entityLabel">pk,fk</text><rect height="22" width="57" y="24" x="166" class="er attributeBoxOdd"></rect><text transform="translate(171,35)" style="dominant-baseline: middle; font-size: 10.2px;" y="0" x="0" id="text-entity-BOOK-12b90bf2-7af7-5ded-a124-d6647c4b972e-attr-1-comment" class="er entityLabel"></text><rect height="22" width="60" y="46" x="0" class="er attributeBoxEven"></rect><text transform="translate(5,57)" style="dominant-baseline: middle; font-size: 10.2px;" y="0" x="0" id="text-entity-BOOK-12b90bf2-7af7-5ded-a124-d6647c4b972e-attr-2-type" class="er entityLabel">serial</text><rect height="22" width="69" y="46" x="60" class="er attributeBoxEven"></rect><text transform="translate(65,57)" style="dominant-baseline: middle; font-size: 10.2px;" y="0" x="0" id="text-entity-BOOK-12b90bf2-7af7-5ded-a124-d6647c4b972e-attr-2-name" class="er entityLabel">author_id</text><rect height="22" width="37" y="46" x="129" class="er attributeBoxEven"></rect><text transform="translate(134,57)" style="dominant-baseline: middle; font-size: 10.2px;" y="0" x="0" id="text-entity-BOOK-12b90bf2-7af7-5ded-a124-d6647c4b972e-attr-2-key" class="er entityLabel">fk</text><rect height="22" width="57" y="46" x="166" class="er attributeBoxEven"></rect><text transform="translate(171,57)" style="dominant-baseline: middle; font-size: 10.2px;" y="0" x="0" id="text-entity-BOOK-12b90bf2-7af7-5ded-a124-d6647c4b972e-attr-2-comment" class="er entityLabel"></text><rect height="22" width="60" y="68" x="0" class="er attributeBoxOdd"></rect><text transform="translate(5,79)" style="dominant-baseline: middle; font-size: 10.2px;" y="0" x="0" id="text-entity-BOOK-12b90bf2-7af7-5ded-a124-d6647c4b972e-attr-3-type" class="er entityLabel">timestamp</text><rect height="22" width="69" y="68" x="60" class="er attributeBoxOdd"></rect><text transform="translate(65,79)" style="dominant-baseline: middle; font-size: 10.2px;" y="0" x="0" id="text-entity-BOOK-12b90bf2-7af7-5ded-a124-d6647c4b972e-attr-3-name" class="er entityLabel">created_ts</text><rect height="22" width="37" y="68" x="129" class="er attributeBoxOdd"></rect><text transform="translate(134,79)" style="dominant-baseline: middle; font-size: 10.2px;" y="0" x="0" id="text-entity-BOOK-12b90bf2-7af7-5ded-a124-d6647c4b972e-attr-3-key" class="er entityLabel"></text><rect height="22" width="57" y="68" x="166" class="er attributeBoxOdd"></rect><text transform="translate(171,79)" style="dominant-baseline: middle; font-size: 10.2px;" y="0" x="0" id="text-entity-BOOK-12b90bf2-7af7-5ded-a124-d6647c4b972e-attr-3-comment" class="er entityLabel"></text><rect height="22" width="60" y="90" x="0" class="er attributeBoxEven"></rect><text transform="translate(5,101)" style="dominant-baseline: middle; font-size: 10.2px;" y="0" x="0" id="text-entity-BOOK-12b90bf2-7af7-5ded-a124-d6647c4b972e-attr-4-type" class="er entityLabel">text</text><rect height="22" width="69" y="90" x="60" class="er attributeBoxEven"></rect><text transform="translate(65,101)" style="dominant-baseline: middle; font-size: 10.2px;" y="0" x="0" id="text-entity-BOOK-12b90bf2-7af7-5ded-a124-d6647c4b972e-attr-4-name" class="er entityLabel">title</text><rect height="22" width="37" y="90" x="129" class="er attributeBoxEven"></rect><text transform="translate(134,101)" style="dominant-baseline: middle; font-size: 10.2px;" y="0" x="0" id="text-entity-BOOK-12b90bf2-7af7-5ded-a124-d6647c4b972e-attr-4-key" class="er entityLabel"></text><rect height="22" width="57" y="90" x="166" class="er attributeBoxEven"></rect><text transform="translate(171,101)" style="dominant-baseline: middle; font-size: 10.2px;" y="0" x="0" id="text-entity-BOOK-12b90bf2-7af7-5ded-a124-d6647c4b972e-attr-4-comment" class="er entityLabel"></text><rect height="22" width="60" y="112" x="0" class="er attributeBoxOdd"></rect><text transform="translate(5,123)" style="dominant-baseline: middle; font-size: 10.2px;" y="0" x="0" id="text-entity-BOOK-12b90bf2-7af7-5ded-a124-d6647c4b972e-attr-5-type" class="er entityLabel">date</text><rect height="22" width="69" y="112" x="60" class="er attributeBoxOdd"></rect><text transform="translate(65,123)" style="dominant-baseline: middle; font-size: 10.2px;" y="0" x="0" id="text-entity-BOOK-12b90bf2-7af7-5ded-a124-d6647c4b972e-attr-5-name" class="er entityLabel">publish_date</text><rect height="22" width="37" y="112" x="129" class="er attributeBoxOdd"></rect><text transform="translate(134,123)" style="dominant-baseline: middle; font-size: 10.2px;" y="0" x="0" id="text-entity-BOOK-12b90bf2-7af7-5ded-a124-d6647c4b972e-attr-5-key" class="er entityLabel"></text><rect height="22" width="57" y="112" x="166" class="er attributeBoxOdd"></rect><text transform="translate(171,123)" style="dominant-baseline: middle; font-size: 10.2px;" y="0" x="0" id="text-entity-BOOK-12b90bf2-7af7-5ded-a124-d6647c4b972e-attr-5-comment" class="er entityLabel">NULLABLE</text><rect height="22" width="60" y="134" x="0" class="er attributeBoxEven"></rect><text transform="translate(5,145)" style="dominant-baseline: middle; font-size: 10.2px;" y="0" x="0" id="text-entity-BOOK-12b90bf2-7af7-5ded-a124-d6647c4b972e-attr-6-type" class="er entityLabel">smallint</text><rect height="22" width="69" y="134" x="60" class="er attributeBoxEven"></rect><text transform="translate(65,145)" style="dominant-baseline: middle; font-size: 10.2px;" y="0" x="0" id="text-entity-BOOK-12b90bf2-7af7-5ded-a124-d6647c4b972e-attr-6-name" class="er entityLabel">edition</text><rect height="22" width="37" y="134" x="129" class="er attributeBoxEven"></rect><text transform="translate(134,145)" style="dominant-baseline: middle; font-size: 10.2px;" y="0" x="0" id="text-entity-BOOK-12b90bf2-7af7-5ded-a124-d6647c4b972e-attr-6-key" class="er entityLabel"></text><rect height="22" width="57" y="134" x="166" class="er attributeBoxEven"></rect><text transform="translate(171,145)" style="dominant-baseline: middle; font-size: 10.2px;" y="0" x="0" id="text-entity-BOOK-12b90bf2-7af7-5ded-a124-d6647c4b972e-attr-6-comment" class="er entityLabel">NULLABLE</text><rect height="22" width="60" y="156" x="0" class="er attributeBoxOdd"></rect><text transform="translate(5,167)" style="dominant-baseline: middle; font-size: 10.2px;" y="0" x="0" id="text-entity-BOOK-12b90bf2-7af7-5ded-a124-d6647c4b972e-attr-7-type" class="er entityLabel">text</text><rect height="22" width="69" y="156" x="60" class="er attributeBoxOdd"></rect><text transform="translate(65,167)" style="dominant-baseline: middle; font-size: 10.2px;" y="0" x="0" id="text-entity-BOOK-12b90bf2-7af7-5ded-a124-d6647c4b972e-attr-7-name" class="er entityLabel">description</text><rect height="22" width="37" y="156" x="129" class="er attributeBoxOdd"></rect><text transform="translate(134,167)" style="dominant-baseline: middle; font-size: 10.2px;" y="0" x="0" id="text-entity-BOOK-12b90bf2-7af7-5ded-a124-d6647c4b972e-attr-7-key" class="er entityLabel"></text><rect height="22" width="57" y="156" x="166" class="er attributeBoxOdd"></rect><text transform="translate(171,167)" style="dominant-baseline: middle; font-size: 10.2px;" y="0" x="0" id="text-entity-BOOK-12b90bf2-7af7-5ded-a124-d6647c4b972e-attr-7-comment" class="er entityLabel">NULLABLE</text><rect height="22" width="60" y="178" x="0" class="er attributeBoxEven"></rect><text transform="translate(5,189)" style="dominant-baseline: middle; font-size: 10.2px;" y="0" x="0" id="text-entity-BOOK-12b90bf2-7af7-5ded-a124-d6647c4b972e-attr-8-type" class="er entityLabel">text</text><rect height="22" width="69" y="178" x="60" class="er attributeBoxEven"></rect><text transform="translate(65,189)" style="dominant-baseline: middle; font-size: 10.2px;" y="0" x="0" id="text-entity-BOOK-12b90bf2-7af7-5ded-a124-d6647c4b972e-attr-8-name" class="er entityLabel">genre</text><rect height="22" width="37" y="178" x="129" class="er attributeBoxEven"></rect><text transform="translate(134,189)" style="dominant-baseline: middle; font-size: 10.2px;" y="0" x="0" id="text-entity-BOOK-12b90bf2-7af7-5ded-a124-d6647c4b972e-attr-8-key" class="er entityLabel"></text><rect height="22" width="57" y="178" x="166" class="er attributeBoxEven"></rect><text transform="translate(171,189)" style="dominant-baseline: middle; font-size: 10.2px;" y="0" x="0" id="text-entity-BOOK-12b90bf2-7af7-5ded-a124-d6647c4b972e-attr-8-comment" class="er entityLabel">NULLABLE</text></g><g transform="translate(278,210 )" id="entity-COLLECTIONBOOKS-8b6776ef-86b8-5882-bd23-b576f6a25e3e"><rect height="68" width="145" y="0" x="0" class="er entityBox"></rect><text transform="translate(72.5,12)" style="dominant-baseline: middle; text-anchor: middle; font-size: 12px;" y="0" x="0" id="text-entity-COLLECTIONBOOKS-8b6776ef-86b8-5882-bd23-b576f6a25e3e" class="er entityLabel">COLLECTION_BOOKS</text><rect height="22" width="38" y="24" x="0" class="er attributeBoxOdd"></rect><text transform="translate(5,35)" style="dominant-baseline: middle; font-size: 10.2px;" y="0" x="0" id="text-entity-COLLECTIONBOOKS-8b6776ef-86b8-5882-bd23-b576f6a25e3e-attr-1-type" class="er entityLabel">serial</text><rect height="22" width="69" y="24" x="38" class="er attributeBoxOdd"></rect><text transform="translate(43,35)" style="dominant-baseline: middle; font-size: 10.2px;" y="0" x="0" id="text-entity-COLLECTIONBOOKS-8b6776ef-86b8-5882-bd23-b576f6a25e3e-attr-1-name" class="er entityLabel">collection_id</text><rect height="22" width="38" y="24" x="107" class="er attributeBoxOdd"></rect><text transform="translate(112,35)" style="dominant-baseline: middle; font-size: 10.2px;" y="0" x="0" id="text-entity-COLLECTIONBOOKS-8b6776ef-86b8-5882-bd23-b576f6a25e3e-attr-1-key" class="er entityLabel">pk,fk</text><rect height="22" width="38" y="46" x="0" class="er attributeBoxEven"></rect><text transform="translate(5,57)" style="dominant-baseline: middle; font-size: 10.2px;" y="0" x="0" id="text-entity-COLLECTIONBOOKS-8b6776ef-86b8-5882-bd23-b576f6a25e3e-attr-2-type" class="er entityLabel">serial</text><rect height="22" width="69" y="46" x="38" class="er attributeBoxEven"></rect><text transform="translate(43,57)" style="dominant-baseline: middle; font-size: 10.2px;" y="0" x="0" id="text-entity-COLLECTIONBOOKS-8b6776ef-86b8-5882-bd23-b576f6a25e3e-attr-2-name" class="er entityLabel">book_id</text><rect height="22" width="38" y="46" x="107" class="er attributeBoxEven"></rect><text transform="translate(112,57)" style="dominant-baseline: middle; font-size: 10.2px;" y="0" x="0" id="text-entity-COLLECTIONBOOKS-8b6776ef-86b8-5882-bd23-b576f6a25e3e-attr-2-key" class="er entityLabel">pk,fk</text></g><g transform="translate(278,20 )" id="entity-COLLECTION-cced9893-eeef-5a77-a515-0d379332563a"><rect height="68" width="145" y="0" x="0" class="er entityBox"></rect><text transform="translate(72.5,12)" style="dominant-baseline: middle; text-anchor: middle; font-size: 12px;" y="0" x="0" id="text-entity-COLLECTION-cced9893-eeef-5a77-a515-0d379332563a" class="er entityLabel">COLLECTION</text><rect height="22" width="60" y="24" x="0" class="er attributeBoxOdd"></rect><text transform="translate(5,35)" style="dominant-baseline: middle; font-size: 10.2px;" y="0" x="0" id="text-entity-COLLECTION-cced9893-eeef-5a77-a515-0d379332563a-attr-1-type" class="er entityLabel">timestamp</text><rect height="22" width="61" y="24" x="60" class="er attributeBoxOdd"></rect><text transform="translate(65,35)" style="dominant-baseline: middle; font-size: 10.2px;" y="0" x="0" id="text-entity-COLLECTION-cced9893-eeef-5a77-a515-0d379332563a-attr-1-name" class="er entityLabel">created_ts</text><rect height="22" width="24" y="24" x="121" class="er attributeBoxOdd"></rect><text transform="translate(126,35)" style="dominant-baseline: middle; font-size: 10.2px;" y="0" x="0" id="text-entity-COLLECTION-cced9893-eeef-5a77-a515-0d379332563a-attr-1-key" class="er entityLabel"></text><rect height="22" width="60" y="46" x="0" class="er attributeBoxEven"></rect><text transform="translate(5,57)" style="dominant-baseline: middle; font-size: 10.2px;" y="0" x="0" id="text-entity-COLLECTION-cced9893-eeef-5a77-a515-0d379332563a-attr-2-type" class="er entityLabel">text</text><rect height="22" width="61" y="46" x="60" class="er attributeBoxEven"></rect><text transform="translate(65,57)" style="dominant-baseline: middle; font-size: 10.2px;" y="0" x="0" id="text-entity-COLLECTION-cced9893-eeef-5a77-a515-0d379332563a-attr-2-name" class="er entityLabel">title</text><rect height="22" width="24" y="46" x="121" class="er attributeBoxEven"></rect><text transform="translate(126,57)" style="dominant-baseline: middle; font-size: 10.2px;" y="0" x="0" id="text-entity-COLLECTION-cced9893-eeef-5a77-a515-0d379332563a-attr-2-key" class="er entityLabel">pk</text></g><rect height="14" width="37" y="347.70556640625" x="89.635986328125" class="er relationshipLabelBox"></rect><text style="text-anchor: middle; dominant-baseline: middle; font-size: 12px;" y="354.70556640625" x="108.135986328125" id="rel130" class="er relationshipLabel">writes</text><rect height="14" width="41" y="337.15582275390625" x="323.7313232421875" class="er relationshipLabelBox"></rect><text style="text-anchor: middle; dominant-baseline: middle; font-size: 12px;" y="344.15582275390625" x="344.2313232421875" id="rel131" class="er relationshipLabel">part of</text><rect height="14" width="50" y="142" x="325.5" class="er relationshipLabelBox"></rect><text style="text-anchor: middle; dominant-baseline: middle; font-size: 12px;" y="149" x="350.5" id="rel132" class="er relationshipLabel">contains</text></svg>